<mxfile host="app.diagrams.net" agent="Mozilla/5.0 (Windows NT 10.0; Win64; x64) AppleWebKit/537.36 (KHTML, like Gecko) Chrome/135.0.0.0 Safari/537.36" version="27.2.0">
  <diagram name="Page-1" id="4StISRfN_1FRXRYpY8h-">
    <mxGraphModel grid="1" page="1" gridSize="10" guides="1" tooltips="1" connect="1" arrows="1" fold="1" pageScale="1" pageWidth="850" pageHeight="1100" math="0" shadow="0">
      <root>
        <mxCell id="0" />
        <mxCell id="1" parent="0" />
        <mxCell id="Nq5tnIXbPwl9JLNQHz7d-25" value="" style="rounded=0;whiteSpace=wrap;html=1;" vertex="1" parent="1">
          <mxGeometry x="100" y="-80" width="720" height="720" as="geometry" />
        </mxCell>
        <mxCell id="Nq5tnIXbPwl9JLNQHz7d-6" value="gRPC" style="edgeStyle=orthogonalEdgeStyle;rounded=0;orthogonalLoop=1;jettySize=auto;html=1;exitX=0.25;exitY=1;exitDx=0;exitDy=0;fillColor=#dae8fc;strokeColor=#6c8ebf;" edge="1" parent="1" source="Nq5tnIXbPwl9JLNQHz7d-1" target="Nq5tnIXbPwl9JLNQHz7d-2">
          <mxGeometry relative="1" as="geometry" />
        </mxCell>
        <mxCell id="Nq5tnIXbPwl9JLNQHz7d-7" value="gRPC" style="edgeStyle=orthogonalEdgeStyle;rounded=0;orthogonalLoop=1;jettySize=auto;html=1;exitX=0.75;exitY=1;exitDx=0;exitDy=0;entryX=0.75;entryY=0;entryDx=0;entryDy=0;fillColor=#dae8fc;strokeColor=#6c8ebf;" edge="1" parent="1" source="Nq5tnIXbPwl9JLNQHz7d-1" target="Nq5tnIXbPwl9JLNQHz7d-3">
          <mxGeometry relative="1" as="geometry" />
        </mxCell>
        <mxCell id="Nq5tnIXbPwl9JLNQHz7d-1" value="HTTP Gateway" style="rounded=0;whiteSpace=wrap;html=1;fillColor=#dae8fc;strokeColor=#6c8ebf;" vertex="1" parent="1">
          <mxGeometry x="440" y="60" width="120" height="60" as="geometry" />
        </mxCell>
        <mxCell id="Nq5tnIXbPwl9JLNQHz7d-10" value="gRPC" style="edgeStyle=orthogonalEdgeStyle;rounded=0;orthogonalLoop=1;jettySize=auto;html=1;exitX=1;exitY=0.5;exitDx=0;exitDy=0;entryX=0;entryY=0.5;entryDx=0;entryDy=0;fillColor=#dae8fc;strokeColor=#6c8ebf;" edge="1" parent="1" source="Nq5tnIXbPwl9JLNQHz7d-2" target="Nq5tnIXbPwl9JLNQHz7d-3">
          <mxGeometry relative="1" as="geometry" />
        </mxCell>
        <mxCell id="Nq5tnIXbPwl9JLNQHz7d-12" value="send email" style="edgeStyle=orthogonalEdgeStyle;rounded=0;orthogonalLoop=1;jettySize=auto;html=1;exitX=0.5;exitY=1;exitDx=0;exitDy=0;entryX=0.5;entryY=0;entryDx=0;entryDy=0;fillColor=#dae8fc;strokeColor=#6c8ebf;" edge="1" parent="1" source="Nq5tnIXbPwl9JLNQHz7d-2" target="Nq5tnIXbPwl9JLNQHz7d-11">
          <mxGeometry relative="1" as="geometry" />
        </mxCell>
        <mxCell id="Nq5tnIXbPwl9JLNQHz7d-2" value="Subscription Service" style="rounded=0;whiteSpace=wrap;html=1;fillColor=#dae8fc;strokeColor=#6c8ebf;" vertex="1" parent="1">
          <mxGeometry x="160" y="240" width="120" height="60" as="geometry" />
        </mxCell>
        <mxCell id="Nq5tnIXbPwl9JLNQHz7d-3" value="Weather Service" style="rounded=0;whiteSpace=wrap;html=1;fillColor=#dae8fc;strokeColor=#6c8ebf;" vertex="1" parent="1">
          <mxGeometry x="440" y="240" width="120" height="60" as="geometry" />
        </mxCell>
        <mxCell id="Nq5tnIXbPwl9JLNQHz7d-24" value="HTTP" style="edgeStyle=orthogonalEdgeStyle;rounded=0;orthogonalLoop=1;jettySize=auto;html=1;exitX=1;exitY=0.5;exitDx=0;exitDy=0;entryX=0;entryY=0.5;entryDx=0;entryDy=0;fillColor=#f5f5f5;strokeColor=#666666;" edge="1" parent="1" source="Nq5tnIXbPwl9JLNQHz7d-8" target="Nq5tnIXbPwl9JLNQHz7d-1">
          <mxGeometry relative="1" as="geometry" />
        </mxCell>
        <mxCell id="Nq5tnIXbPwl9JLNQHz7d-8" value="User" style="rounded=0;whiteSpace=wrap;html=1;fillColor=#f5f5f5;strokeColor=#666666;fontColor=#333333;" vertex="1" parent="1">
          <mxGeometry x="160" y="60" width="120" height="60" as="geometry" />
        </mxCell>
        <mxCell id="Nq5tnIXbPwl9JLNQHz7d-15" value="send email" style="edgeStyle=orthogonalEdgeStyle;rounded=0;orthogonalLoop=1;jettySize=auto;html=1;exitX=0.5;exitY=1;exitDx=0;exitDy=0;entryX=0.5;entryY=0;entryDx=0;entryDy=0;fillColor=#dae8fc;strokeColor=#6c8ebf;" edge="1" parent="1" source="Nq5tnIXbPwl9JLNQHz7d-11" target="Nq5tnIXbPwl9JLNQHz7d-13">
          <mxGeometry relative="1" as="geometry" />
        </mxCell>
        <mxCell id="Nq5tnIXbPwl9JLNQHz7d-11" value="Message Broker" style="rounded=0;whiteSpace=wrap;html=1;fillColor=#dae8fc;strokeColor=#6c8ebf;" vertex="1" parent="1">
          <mxGeometry x="160" y="390" width="120" height="60" as="geometry" />
        </mxCell>
        <mxCell id="Nq5tnIXbPwl9JLNQHz7d-13" value="Mailer" style="rounded=0;whiteSpace=wrap;html=1;fillColor=#dae8fc;strokeColor=#6c8ebf;" vertex="1" parent="1">
          <mxGeometry x="160" y="530" width="120" height="60" as="geometry" />
        </mxCell>
        <mxCell id="Nq5tnIXbPwl9JLNQHz7d-19" value="HTTP /metrics" style="rounded=0;orthogonalLoop=1;jettySize=auto;html=1;exitX=0.5;exitY=0;exitDx=0;exitDy=0;entryX=1;entryY=0.5;entryDx=0;entryDy=0;edgeStyle=entityRelationEdgeStyle;fillColor=#fff2cc;strokeColor=#d6b656;" edge="1" parent="1" source="Nq5tnIXbPwl9JLNQHz7d-16" target="Nq5tnIXbPwl9JLNQHz7d-3">
          <mxGeometry relative="1" as="geometry" />
        </mxCell>
        <mxCell id="Nq5tnIXbPwl9JLNQHz7d-20" value="HTTP /metrics" style="rounded=0;orthogonalLoop=1;jettySize=auto;html=1;exitX=0;exitY=0.5;exitDx=0;exitDy=0;entryX=1;entryY=1;entryDx=0;entryDy=0;edgeStyle=entityRelationEdgeStyle;fillColor=#fff2cc;strokeColor=#d6b656;" edge="1" parent="1" source="Nq5tnIXbPwl9JLNQHz7d-16" target="Nq5tnIXbPwl9JLNQHz7d-2">
          <mxGeometry relative="1" as="geometry" />
        </mxCell>
        <mxCell id="Nq5tnIXbPwl9JLNQHz7d-21" value="HTTP /metrics" style="rounded=0;orthogonalLoop=1;jettySize=auto;html=1;exitX=0;exitY=0.75;exitDx=0;exitDy=0;entryX=1;entryY=0.5;entryDx=0;entryDy=0;edgeStyle=entityRelationEdgeStyle;fillColor=#fff2cc;strokeColor=#d6b656;" edge="1" parent="1" source="Nq5tnIXbPwl9JLNQHz7d-16" target="Nq5tnIXbPwl9JLNQHz7d-13">
          <mxGeometry relative="1" as="geometry" />
        </mxCell>
        <mxCell id="Nq5tnIXbPwl9JLNQHz7d-23" value="HTTP /metrcis" style="edgeStyle=entityRelationEdgeStyle;rounded=0;orthogonalLoop=1;jettySize=auto;html=1;exitX=0.75;exitY=0;exitDx=0;exitDy=0;entryX=1;entryY=0.5;entryDx=0;entryDy=0;elbow=vertical;fillColor=#fff2cc;strokeColor=#d6b656;" edge="1" parent="1" source="Nq5tnIXbPwl9JLNQHz7d-16" target="Nq5tnIXbPwl9JLNQHz7d-1">
          <mxGeometry relative="1" as="geometry" />
        </mxCell>
        <mxCell id="Nq5tnIXbPwl9JLNQHz7d-16" value="Prometheus" style="rounded=0;whiteSpace=wrap;html=1;fillColor=#fff2cc;strokeColor=#d6b656;" vertex="1" parent="1">
          <mxGeometry x="650" y="390" width="120" height="60" as="geometry" />
        </mxCell>
        <mxCell id="Nq5tnIXbPwl9JLNQHz7d-18" value="fetch metrics" style="edgeStyle=orthogonalEdgeStyle;rounded=0;orthogonalLoop=1;jettySize=auto;html=1;exitX=0.5;exitY=0;exitDx=0;exitDy=0;entryX=0.5;entryY=1;entryDx=0;entryDy=0;fillColor=#fff2cc;strokeColor=#d6b656;" edge="1" parent="1" source="Nq5tnIXbPwl9JLNQHz7d-17" target="Nq5tnIXbPwl9JLNQHz7d-16">
          <mxGeometry relative="1" as="geometry" />
        </mxCell>
        <mxCell id="Nq5tnIXbPwl9JLNQHz7d-17" value="Grafana" style="rounded=0;whiteSpace=wrap;html=1;fillColor=#fff2cc;strokeColor=#d6b656;" vertex="1" parent="1">
          <mxGeometry x="650" y="550" width="120" height="60" as="geometry" />
        </mxCell>
        <mxCell id="Nq5tnIXbPwl9JLNQHz7d-33" value="" style="group" connectable="0" vertex="1" parent="1">
          <mxGeometry x="660" y="-60" width="140" height="100" as="geometry" />
        </mxCell>
        <mxCell id="Nq5tnIXbPwl9JLNQHz7d-27" value="" style="rounded=0;whiteSpace=wrap;html=1;" vertex="1" parent="Nq5tnIXbPwl9JLNQHz7d-33">
          <mxGeometry width="140" height="100" as="geometry" />
        </mxCell>
        <mxCell id="Nq5tnIXbPwl9JLNQHz7d-28" value="" style="rounded=0;whiteSpace=wrap;html=1;fillColor=#fff2cc;strokeColor=#d6b656;" vertex="1" parent="Nq5tnIXbPwl9JLNQHz7d-33">
          <mxGeometry x="10" y="20" width="40" height="20" as="geometry" />
        </mxCell>
        <mxCell id="Nq5tnIXbPwl9JLNQHz7d-29" value="&lt;i&gt;observability&lt;/i&gt;" style="text;html=1;align=center;verticalAlign=middle;whiteSpace=wrap;rounded=0;" vertex="1" parent="Nq5tnIXbPwl9JLNQHz7d-33">
          <mxGeometry x="50" y="15" width="80" height="30" as="geometry" />
        </mxCell>
        <mxCell id="Nq5tnIXbPwl9JLNQHz7d-30" value="" style="rounded=0;whiteSpace=wrap;html=1;fillColor=#dae8fc;strokeColor=#6c8ebf;" vertex="1" parent="Nq5tnIXbPwl9JLNQHz7d-33">
          <mxGeometry x="10" y="60" width="40" height="20" as="geometry" />
        </mxCell>
        <mxCell id="Nq5tnIXbPwl9JLNQHz7d-31" value="&lt;i&gt;business&lt;/i&gt;&lt;div&gt;&lt;i&gt;services&lt;/i&gt;&lt;/div&gt;" style="text;html=1;align=center;verticalAlign=middle;whiteSpace=wrap;rounded=0;" vertex="1" parent="Nq5tnIXbPwl9JLNQHz7d-33">
          <mxGeometry x="50" y="55" width="80" height="30" as="geometry" />
        </mxCell>
        <mxCell id="Nq5tnIXbPwl9JLNQHz7d-36" value="&lt;font style=&quot;font-size: 16px;&quot;&gt;&lt;b style=&quot;&quot;&gt;Microservices Architecture&lt;/b&gt;&lt;/font&gt;" style="text;html=1;align=center;verticalAlign=middle;whiteSpace=wrap;rounded=0;" vertex="1" parent="1">
          <mxGeometry x="340" y="-60" width="225" height="50" as="geometry" />
        </mxCell>
      </root>
    </mxGraphModel>
  </diagram>
</mxfile>
